<?xml version="1.0" encoding="UTF-8"?>
<svg viewBox="0 0 329.92 145.16" xmlns="http://www.w3.org/2000/svg">
 <g opacity=".84">
  <g fill-rule="evenodd" stroke="#000">
   <path d="m38.206 119.79l8.3045 1.7236 43.402 10.655c4.2306-1.0968 10.498-7.9911 10.498-7.9911l-3.2905-36.352-35.255-13.632-20.526 20.996-3.1338 24.6z"/>
   <path d="m253.38 123.55c4.2102 3.9886 14.671 6.4836 14.671 6.4836l34.228-3.5031s3.652-0.58868 6.9758-2.3614l2.7775-5.0086-0.5497-33.758-20.83-19.5-37.006 11.523-1.5511 46.977 1.2839-0.8525z"/>
   <path d="m133.16 6.099c-32.834-0.059464-67.39 3.8403-90.188 6.75l-12.375 3.0938 2.1562 3.2188c-5.396 5.925-22.169 25.318-26.625 34.656-1.5232 10.703-0.125 28.781-0.125 28.781s-3.1406 2.4294-4.9698 3.4012c-0.26934 3.2481 1.3448 6.0051 1.3448 6.0051l2.4062 16.531 1.2188 5.5s-0.17128 3.1504 1.5938 5.5c8.8777-0.24582 32.938 2.3125 32.938 2.3125s-2.1802-42.083 28.625-42.469c32.133 2.0254 30.5 46.875 30.5 46.875l153.34-0.5312c-1.9617-66.045 39-52.53 39.75-51.344 12.185 6.7228 16.316 14.708 18.75 32.906 0 0-0.74945 15.302-0.03125 15.906 1.0225 0.86075 12.278-4.7223 14.781-9.2812 0.60898-1.1092-2.1562-3.625-2.1562-3.625l1.3438-3.7812 2.625-4.3125s1.2212-11.992 0.75-13.812c-0.42313-1.6347-4.7188-3.0938-4.7188-3.0938s0.78156-13.561-2.8125-17.469c-20.53-14.248-78.875-19.625-78.875-19.625l-5.125-2.0312-55.906-36c-14.311-2.9029-31.02-4.0314-48.219-4.0625zm-6 5.1875c9.2659-0.054901 19.632 0.015594 31.312 0.25 0 0 11.478-0.20886 22.938 5 0 0 29.895 16.243 51.355 37.079 0 0-88.568-1.9917-212.12-3.2419l3.2391-9.4035s8.1994-12.681 13.408-16.431c0 0 8.0632-5.6987 16.183-7.5645 14.235-2.7536 33.535-5.4497 73.688-5.6875z" fill="#31548e" stroke-width="2"/>
   <path d="m95.522 113.41c0.004082 16.985-11.659 30.757-26.048 30.757s-26.052-13.772-26.048-30.757c-0.004066-16.985 11.659-30.757 26.048-30.757s26.052 13.772 26.048 30.757z" fill="#141e37" stroke-width="1.905"/>
   <path d="m87.995 113.97c0.003487 13.609-8.5345 24.644-19.068 24.644-10.533 0-19.071-11.035-19.068-24.644-0.00349-13.609 8.5345-24.644 19.068-24.644 10.533 0 19.071 11.035 19.068 24.644z" fill="#d4edff" stroke-width="2"/>
   <path d="m5.8059 79.21l-0.2963-12.634 8.4807-0.3461c1.3846 4.8461 2.0769 12.981 2.0769 12.981h-10.261z" fill="#a4000d" stroke-width="2"/>
   <path d="m5.5253 66.394l0.5217-10.541c7.224 1.7281 8.1119 10.541 8.1119 10.541h-8.6336z" fill="#f2fbff" stroke-width="2.016"/>
   <g stroke-width="2">
    <path d="m324.15 82.239l-13.429 0.2828s1.5561-8.9453 11.265-13.376c0 0 2.07 3.384 2.1643 13.093z" fill="#cff0ff"/>
    <path d="m77.581 13.447c-6.7799 16.324-12.303 36.798-12.303 36.798l9.8736 0.1317s4.0094-19.684 11.053-37.654l-8.623 0.7241z"/>
   </g>
   <path d="m90.285 12.657s2.0347 24.641 4.7993 38.464" fill="none" stroke-width="3"/>
   <path d="m135.88 11.43l3.7785 39.918 15.568 0.2901-11.397-40.092-7.9495-0.116z" stroke-width="2"/>
   <path d="m314.71 89.672l14.14-0.2293 0.2293 3.4395c-4.3567 1.3758-11.924 1.2229-11.924 1.2229-2.9044-1.5287-2.4459-4.4331-2.4459-4.4331z"/>
   <path d="m2.5511 90.984l36.4 0.116 2.7822-4.7529-38.95 0.2318c-1.507 1.7388-0.23184 4.4051-0.23184 4.4051z" stroke-width="2"/>
   <path d="m97.714 88.939c53.936 1.3115 154.92 1.4755 154.92 1.4755" fill="none" stroke-width="3"/>
   <g stroke-width="2">
    <path d="m41.855 13.248c28.196-15.82 98.456-12.702 120.59-10.197 12.534 2.8391 18.026 6.7746 18.026 6.7746-4.356-0.77785-11.512-1.5557-12.757-2.0224-0.59245-0.22217-5.11-4.6998-40.748-5.3263-25.308-0.44688-56.481 0.70869-66.752 8.1266l-18.357 2.6447z"/>
    <path d="m81.837 4.2248s0.62228 2.6447-0.93343 4.2004l6.0673-0.1556c-0.93343-1.4001-0.46672-4.356-0.46672-4.356l-4.6671 0.3111z"/>
   </g>
   <rect x="240.65" y="81.53" width="7.4274" height="2.8628" fill="#fff"/>
   <g fill="none">
    <path d="m72.796 46.655v3.9139l29.47 52.262s2.7628 8.979 16.807 8.5185h134.68"/>
    <path d="m151.07 111.35s0.72731-25.649 0-36.607c-0.3461-5.2146-1.1693-12.166-2.3023-17.267-0.54936-2.4737-2.5325-8.0581-2.5325-8.0581"/>
    <path d="m235.96 111.35s1.9027-19.321 1.8419-27.628c-0.04364-5.9594 1.0963-13.643 0.088074-19.516-0.41095-2.3942-0.29407-5.4389-1.5055-7.5445-0.97421-1.6933-5.4545-5.7378-5.4545-5.7378"/>
    <path d="m6.4898 82.801s19.024-0.33185 27.167 0c3.3928 0.13824 7.8884 0.78268 11.281 0.92093 3.3126 0.13498 11.051 0 11.051 0"/>
    <path d="m11.555 59.778s47.865-0.39941 68.378-0.23022c20.862 0.17212 48.674 0.8342 69.53 1.3814 25.422 0.66702 59.31 1.8459 84.725 2.7628 12.227 0.4411 28.533 0.9657 40.751 1.6116 7.3804 0.39017 40.229 5.7654 40.229 5.7654"/>
    <path d="m305.14 85.652l18.879-0.0994"/>
   </g>
   <path d="m203.84 52.772c6.2271-4.4893 6.1636-18.322 6.1636-18.322l20.658 18.335-26.822-0.0127z"/>
   <g stroke-width="2">
    <path d="m207.87 37.762c3.5547-1.9618 7.3066 1.5139 9.4131 2.7515 1.7687 4.3754-0.54839 7.7893-3.186 10.716-2.3962 2.3962-3.831-0.64496-6.2272-3.0412-0.32051-3.072-0.75496-7.0652 0-10.427z" fill="#31548e"/>
    <g stroke-linejoin="round">
     <path d="m63.96 115.78l-5.944 10.432c-3.5873-6.614-3.8154-11.892-3.0307-15.703l8.9747 5.2714z"/>
     <path d="m68.668 121.16l-6.9568 10.089c6.9503 4.5962 9.3162 2.693 13.352 0.56311l-6.395-10.652z"/>
     <path d="m74.386 116.45l4.9338 11.215c4.372-5.1567 3.8167-10.32 3.9288-14.804l-8.8626 3.5886z"/>
     <path d="m65.866 107.71l1.7976-13.236c-5.7172 1.2331-8.5289 3.5925-10.995 9.8702l9.1976 3.3657z"/>
     <path d="m72.48 108.15l-0.2294-13.352c6.8382 2.9146 7.4118 4.943 9.878 11.557l-9.6486 1.795z"/>
    </g>
   </g>
   <path d="m307.62 108.44c0.004089 16.985-11.659 30.757-26.048 30.757s-26.052-13.772-26.048-30.757c-0.004059-16.985 11.659-30.757 26.048-30.757s26.052 13.772 26.048 30.757z" fill="#141e37" stroke-width="1.905"/>
   <g stroke-width="2">
    <path d="m300.09 109.01c0.00351 13.609-8.5344 24.644-19.068 24.644-10.533 0-19.071-11.035-19.068-24.644-0.003479-13.609 8.5345-24.644 19.068-24.644 10.533 0 19.071 11.035 19.068 24.644z" fill="#d4edff"/>
    <g stroke-linejoin="round">
     <path d="m276.06 110.81l-5.944 10.432c-3.5872-6.614-3.8154-11.892-3.0307-15.703l8.9747 5.2714z"/>
     <path d="m280.76 116.19l-6.9568 10.089c6.9503 4.5962 9.3162 2.6931 13.352 0.56314l-6.3951-10.652z"/>
     <path d="m286.48 111.49l4.9338 11.215c4.372-5.1567 3.8167-10.32 3.9288-14.804l-8.8626 3.5886z"/>
     <path d="m277.96 102.74l1.7975-13.236c-5.7172 1.2331-8.5289 3.5925-10.995 9.8702l9.1976 3.3657z"/>
     <path d="m284.58 103.19l-0.2294-13.352c6.8382 2.9147 7.4118 4.943 9.878 11.557l-9.6486 1.7949z"/>
    </g>
   </g>
   <g fill="#123672">
    <path d="m95.291 59.43c0 1.8-1.9899 3.2593-4.4445 3.2593s-4.4445-1.4592-4.4445-3.2593c0-1.8 1.9899-3.2593 4.4445-3.2593s4.4445 1.4592 4.4445 3.2593z"/>
    <path d="m81.809 58.393c8.3942-1.3462 15.855-0.31674 17.333 0v2.6667c-1.2406-0.44876-10.866-1.663-17.333 0v-2.6667z" stroke-linejoin="round"/>
    <path d="m164.94 60.825c0 1.8-1.9899 3.2593-4.4445 3.2593s-4.4445-1.4592-4.4445-3.2593c0-1.8 1.9899-3.2593 4.4445-3.2593s4.4445 1.4592 4.4445 3.2593z"/>
    <path d="m151.46 59.788c8.3942-1.3462 15.855-0.31674 17.333 0v2.6667c-1.2406-0.44876-10.866-1.663-17.333 0v-2.6667z" stroke-linejoin="round"/>
   </g>
  </g>
 </g>
 <g stroke-width="2">
  <ellipse cx="169.96" cy="31.578" rx="14" ry="14" fill="#ffd4aa" opacity=".84" stroke="#000"/>
  <g stroke-dasharray="null" stroke-linecap="null" stroke-linejoin="null">
   <ellipse cx="174.46" cy="28.328" rx=".5" ry=".75" opacity=".84" stroke="#000"/>
   <path transform="rotate(-37.875 172.46 36.078)" d="m168.69 32.264c0.7531 0 1.3953 0.33007 2.2593 1.9069 1.3661 2.4932 1.5062 3.8138 2.2593 3.8138s0.7531 1.9069 1.5062 1.9069h1.5062v-1.9069" fill="#ff007f" opacity=".84" stroke="#ff5656"/>
   <path d="m157.96 23.578c-1-1-2.2929-1.2929-3-2l-2-2c-0.70711-0.70711-0.29289-1.2929-1-2-0.70711-0.70711 0-2 1-2s1.2929 0.29289 2 1c0.70711 0.70711 2 1 3 1h2v1" fill="none" opacity=".84"/>
   <ellipse transform="rotate(-15.341 164.43 19.506)" cx="164.43" cy="19.506" rx="12.735" ry="4" opacity=".84"/>
   <g fill="none">
    <line x1="181.96" x2="197.96" y1="39.578" y2="39.578" opacity=".84" stroke="#fff"/>
    <g stroke="#000">
     <line x1="174.96" x2="205.96" y1="45.578" y2="52.578" opacity=".84"/>
     <line x1="160.96" x2="156.96" y1="42.578" y2="52.578" opacity=".84"/>
    </g>
   </g>
  </g>
 </g>
</svg>
